<svg width="625" height="812" viewBox="0 0 625 812" fill="none" xmlns="http://www.w3.org/2000/svg">
<rect x="250" width="375" height="812" rx="48" fill="url(#paint0_linear_10_164)"/>
<path fill-rule="evenodd" clip-rule="evenodd" d="M9.29842 376.684C3.26977 385.084 0 395.392 0 406H44.6666C44.6666 406 44.6666 406 44.6666 406L21.5629 447.08C30.0108 452.567 39.9121 454.892 49.7197 453.692C55.8486 452.942 61.7251 450.842 67 447.569C72.2749 450.842 78.1514 452.942 84.2803 453.692C94.0879 454.892 103.989 452.567 112.437 447.08L89.3334 406C89.3334 406 89.3334 406 89.3334 406H134C134 395.392 130.73 385.084 124.702 376.684C118.673 368.285 110.225 362.268 100.678 359.574C91.1304 356.88 81.0216 357.66 71.9306 361.793C70.231 362.566 68.5849 363.447 67 364.431C65.4151 363.447 63.769 362.566 62.0694 361.793C52.9785 357.66 42.8696 356.88 33.3223 359.574C23.775 362.268 15.3271 368.285 9.29842 376.684ZM67 364.431C60.1073 368.707 54.3721 374.906 50.4291 382.418C46.634 389.648 44.6666 397.776 44.6666 406H44.6667L44.6666 406C44.6666 408.285 44.8185 410.578 45.1253 412.861C46.5361 423.359 51.1434 433.06 58.2273 440.447C60.8844 443.218 63.8338 445.605 67 447.569C70.1662 445.605 73.1156 443.218 75.7727 440.447C82.8566 433.06 87.4639 423.359 88.8747 412.861C89.1815 410.578 89.3334 408.285 89.3334 406L89.3333 406H89.3334C89.3334 397.776 87.366 389.648 83.5709 382.418C79.6279 374.906 73.8927 368.707 67 364.431Z" fill="white"/>
<defs>
<linearGradient id="paint0_linear_10_164" x1="250" y1="13" x2="602.5" y2="796" gradientUnits="userSpaceOnUse">
<stop stop-color="#F222AC"/>
<stop offset="1" stop-color="#9722F2"/>
</linearGradient>
</defs>
</svg>
