<svg width="143" height="72" viewBox="0 0 143 72" fill="none" xmlns="http://www.w3.org/2000/svg">
<path fill-rule="evenodd" clip-rule="evenodd" d="M4.82413 21.6936C1.69639 26.0513 0 31.3996 0 36.9029H23.1736L11.1871 58.2158C15.57 61.0623 20.7069 62.2686 25.7952 61.646C28.9749 61.257 32.0237 60.1674 34.7604 58.4695C37.4971 60.1674 40.5459 61.257 43.7256 61.646C48.8139 62.2686 53.9508 61.0623 58.3337 58.2158L46.3472 36.9029H69.5208C69.5208 31.3996 67.8244 26.0513 64.6967 21.6936C61.5689 17.3359 57.186 14.2143 52.2328 12.8166C47.2795 11.4188 42.035 11.8237 37.3185 13.9679C36.4367 14.3687 35.5827 14.8262 34.7604 15.3363C33.9381 14.8262 33.0841 14.3687 32.2023 13.9679C27.4858 11.8237 22.2412 11.4188 17.288 12.8166C12.3348 14.2143 7.95186 17.3359 4.82413 21.6936ZM34.7604 15.3363C31.1844 17.555 28.2089 20.7709 26.1632 24.6681C24.1943 28.4192 23.1736 32.6361 23.1736 36.9029C23.1736 38.0885 23.2524 39.2779 23.4115 40.4623C24.1435 45.9091 26.5338 50.942 30.209 54.7746C31.5876 56.2121 33.1178 57.4504 34.7604 58.4695C36.403 57.4504 37.9332 56.2121 39.3117 54.7746C42.9869 50.942 45.3773 45.9091 46.1092 40.4623C46.2684 39.2779 46.3472 38.0885 46.3472 36.9029C46.3472 32.6361 45.3265 28.4192 43.3575 24.6681C41.3119 20.7709 38.3364 17.555 34.7604 15.3363Z" fill="#A122CE"/>
<path d="M97.824 15.52H92.96L92.064 18H90.528L94.56 6.912H96.24L100.256 18H98.72L97.824 15.52ZM97.424 14.384L95.392 8.704L93.36 14.384H97.424ZM103.469 16.88H107.373V18H102.013V6.848H103.469V16.88ZM110.376 16.88H114.28V18H108.92V6.848H110.376V16.88ZM97.824 39.52H92.96L92.064 42H90.528L94.56 30.912H96.24L100.256 42H98.72L97.824 39.52ZM97.424 38.384L95.392 32.704L93.36 38.384H97.424ZM107.597 36.256C108.003 36.32 108.371 36.4853 108.701 36.752C109.043 37.0187 109.309 37.3493 109.501 37.744C109.704 38.1387 109.805 38.56 109.805 39.008C109.805 39.5733 109.661 40.0853 109.373 40.544C109.085 40.992 108.664 41.3493 108.109 41.616C107.565 41.872 106.92 42 106.173 42H102.013V30.848H106.013C106.771 30.848 107.416 30.976 107.949 31.232C108.483 31.4773 108.883 31.8133 109.149 32.24C109.416 32.6667 109.549 33.1467 109.549 33.68C109.549 34.3413 109.368 34.8907 109.005 35.328C108.653 35.7547 108.184 36.064 107.597 36.256ZM103.469 35.696H105.917C106.589 35.696 107.112 35.536 107.485 35.216C107.869 34.8853 108.061 34.432 108.061 33.856C108.061 33.28 107.875 32.8267 107.501 32.496C107.128 32.1653 106.589 32 105.885 32H103.469V35.696ZM106.045 40.848C106.76 40.848 107.32 40.672 107.725 40.32C108.141 39.968 108.349 39.4827 108.349 38.864C108.349 38.2453 108.136 37.7547 107.709 37.392C107.283 37.0293 106.712 36.848 105.997 36.848H103.469V40.848H106.045ZM116.882 42.112C115.847 42.112 114.903 41.872 114.05 41.392C113.196 40.9013 112.519 40.224 112.018 39.36C111.527 38.4853 111.282 37.504 111.282 36.416C111.282 35.328 111.527 34.352 112.018 33.488C112.519 32.6133 113.196 31.936 114.05 31.456C114.903 30.9653 115.847 30.72 116.882 30.72C117.927 30.72 118.876 30.9653 119.73 31.456C120.583 31.936 121.255 32.608 121.746 33.472C122.236 34.336 122.482 35.3173 122.482 36.416C122.482 37.5147 122.236 38.496 121.746 39.36C121.255 40.224 120.583 40.9013 119.73 41.392C118.876 41.872 117.927 42.112 116.882 42.112ZM116.882 40.8C117.66 40.8 118.359 40.6187 118.978 40.256C119.607 39.8933 120.098 39.3813 120.45 38.72C120.812 38.0587 120.994 37.2907 120.994 36.416C120.994 35.5413 120.812 34.7733 120.45 34.112C120.098 33.44 119.607 32.928 118.978 32.576C118.359 32.2133 117.66 32.032 116.882 32.032C116.103 32.032 115.399 32.2133 114.77 32.576C114.151 32.928 113.66 33.44 113.298 34.112C112.946 34.7733 112.77 35.5413 112.77 36.416C112.77 37.2907 112.946 38.0587 113.298 38.72C113.66 39.3813 114.151 39.8933 114.77 40.256C115.399 40.6187 116.103 40.8 116.882 40.8ZM125.828 30.848V37.888C125.828 38.8693 126.073 39.6053 126.564 40.096C127.055 40.576 127.727 40.816 128.58 40.816C129.433 40.816 130.1 40.576 130.58 40.096C131.071 39.6053 131.316 38.8693 131.316 37.888V30.848H132.772V37.888C132.772 38.816 132.585 39.6 132.212 40.24C131.839 40.8693 131.332 41.3387 130.692 41.648C130.063 41.9573 129.353 42.112 128.564 42.112C127.775 42.112 127.06 41.9573 126.42 41.648C125.791 41.3387 125.289 40.8693 124.916 40.24C124.553 39.6 124.372 38.816 124.372 37.888V30.848H125.828ZM142.065 30.848V31.984H139.025V42H137.569V31.984H134.513V30.848H142.065ZM99.04 54.848L95.408 61.792V66H93.952V61.792L90.304 54.848H91.92L94.672 60.48L97.392 54.848H99.04ZM105.632 66.112C104.597 66.112 103.653 65.872 102.8 65.392C101.946 64.9013 101.269 64.224 100.768 63.36C100.277 62.4853 100.032 61.504 100.032 60.416C100.032 59.328 100.277 58.352 100.768 57.488C101.269 56.6133 101.946 55.936 102.8 55.456C103.653 54.9653 104.597 54.72 105.632 54.72C106.677 54.72 107.626 54.9653 108.48 55.456C109.333 55.936 110.005 56.608 110.496 57.472C110.986 58.336 111.232 59.3173 111.232 60.416C111.232 61.5147 110.986 62.496 110.496 63.36C110.005 64.224 109.333 64.9013 108.48 65.392C107.626 65.872 106.677 66.112 105.632 66.112ZM105.632 64.8C106.41 64.8 107.109 64.6187 107.728 64.256C108.357 63.8933 108.848 63.3813 109.2 62.72C109.562 62.0587 109.744 61.2907 109.744 60.416C109.744 59.5413 109.562 58.7733 109.2 58.112C108.848 57.44 108.357 56.928 107.728 56.576C107.109 56.2133 106.41 56.032 105.632 56.032C104.853 56.032 104.149 56.2133 103.52 56.576C102.901 56.928 102.41 57.44 102.048 58.112C101.696 58.7733 101.52 59.5413 101.52 60.416C101.52 61.2907 101.696 62.0587 102.048 62.72C102.41 63.3813 102.901 63.8933 103.52 64.256C104.149 64.6187 104.853 64.8 105.632 64.8ZM114.578 54.848V61.888C114.578 62.8693 114.823 63.6053 115.314 64.096C115.805 64.576 116.477 64.816 117.33 64.816C118.183 64.816 118.85 64.576 119.33 64.096C119.821 63.6053 120.066 62.8693 120.066 61.888V54.848H121.522V61.888C121.522 62.816 121.335 63.6 120.962 64.24C120.589 64.8693 120.082 65.3387 119.442 65.648C118.813 65.9573 118.103 66.112 117.314 66.112C116.525 66.112 115.81 65.9573 115.17 65.648C114.541 65.3387 114.039 64.8693 113.666 64.24C113.303 63.6 113.122 62.816 113.122 61.888V54.848H114.578Z" fill="#2D264B"/>
<rect x="77" y="6" width="5" height="60" fill="#2D264B"/>
</svg>
